<svg width="979" height="979" viewBox="0 0 979 979" fill="none" xmlns="http://www.w3.org/2000/svg">
<g filter="url(#filter0_d_612_176)">
<path d="M331.075 246.332L336.075 246.371L330.948 262.331L328.944 262.815L327.44 263.304L325.928 264.792L324.417 266.28L322.897 268.768L297.334 340.069L279.335 339.927L278.839 339.423L267.265 285.33L266.265 285.322L258.111 304.759L256.076 309.243L254.041 313.727L251.489 320.207L249.446 325.691L247.411 330.175L244.871 335.155L242.332 340.135L239.297 344.612L235.761 349.084L231.222 354.048L227.191 358.017L223.159 361.985L218.132 365.445L212.609 368.402L204.577 372.339L198.062 374.288L191.05 375.732L182.546 376.165L173.055 375.091L165.071 373.028L160.09 370.488L155.114 367.449L150.142 363.91L146.67 360.382L142.705 355.851L140.233 352.331L137.764 348.312L134.808 342.788L137.812 342.312L141.82 341.343L145.327 340.371L148.839 338.899L166.287 345.536L172.779 346.588L178.775 347.135L183.775 347.174L188.283 346.21L196.794 344.777L208.833 339.871L217.368 335.439L223.908 330.49L230.451 325.041L236.506 318.089L241.557 311.628L246.62 303.668L250.175 296.696L253.222 290.72L262.419 265.791L261.93 264.287L254.435 263.728L260.064 247.272L288.064 247.493L298.681 296.078L299.181 296.082L308.893 269.158L310.417 266.17L311.945 262.681L313.464 260.193L315.496 256.209L317.511 254.225L320.035 251.245L323.555 248.772L327.07 246.8L331.075 246.332Z" fill="#70350B"/>
</g>
<g filter="url(#filter1_d_612_176)">
<path d="M207.547 249.359C194.297 255.654 184.221 269.509 180.839 275.649L178.799 280.633L175.733 289.109C173.685 295.093 174.141 300.597 174.602 305.601C174.97 309.604 180.362 314.98 183.011 317.167L192.483 320.742C197.81 321.617 210.673 322.085 219.514 316.955C230.565 310.542 232.08 308.554 236.616 304.089C240.244 300.518 243.857 294.646 245.21 292.157L250.324 277.696C251.017 274.368 251.916 266.009 249.97 259.193C248.024 252.378 240.886 248.621 237.561 247.595C233.077 245.56 220.797 243.063 207.547 249.359Z" fill="#70350B"/>
<path d="M75.8416 338.324L81.4715 321.867C88.2681 322.321 90.9804 320.776 91.4869 319.946L113.983 257.122L111.065 246.598C122.898 246.691 148.665 246.795 157.068 246.461C167.572 246.043 174.044 249.595 177.516 253.122C180.988 256.649 182.481 257.661 176.354 273.614C171.453 286.375 157.893 289.802 151.725 289.92L151.214 291.416C154.721 290.444 162.197 293.503 165.162 298.026C167.533 301.645 167.092 306.875 166.575 309.038C166.747 308.372 167.019 309.046 164.02 316.018C159.877 325.651 158.438 326.474 151.391 332.419C145.753 337.174 135.341 338.626 130.84 338.757L77.8376 338.839L75.8416 338.324Z" fill="#70350B"/>
<path d="M77.4171 201.832C96.8779 219.586 106.57 246.063 108.983 257.082L105.403 267.054C105.251 265.22 104.455 260.447 102.49 256.031C100.034 250.511 92.6323 237.953 87.6797 231.914C83.7177 227.082 79.4149 223.181 77.7588 221.835C75.1041 220.314 68.6946 217.263 64.2947 217.229C59.8948 217.194 58.1072 219.847 57.7634 221.177C57.5875 222.343 58.5311 225.284 63.712 227.725C68.8929 230.165 74.2117 227.807 76.2234 226.323C79.8624 229.852 86.6396 237.005 84.6365 237.39C82.6334 237.774 71.1356 237.45 65.6371 237.24C52.0343 237.533 39.6817 231.535 35.2057 228.5C2.95885 196.245 53.0912 179.639 77.4171 201.832Z" fill="#70350B"/>
<path d="M107.136 237.567C105.974 232.758 96.4604 217.482 91.849 210.446L94.3814 202.965L107.719 163.569C106.931 161.963 101.735 161.522 99.2349 161.502L105.365 145.05L158.363 145.468C181.362 145.649 180.205 165.641 170.111 177.561C162.035 187.098 152.019 189.086 148.021 188.888L148.013 189.888C151.181 189.746 158.405 190.87 161.961 196.498C165.517 202.126 162.343 211.501 160.311 215.485C159.116 219.143 154.415 227.739 145.174 232.867C135.933 237.994 115.965 238.137 107.136 237.567Z" fill="#70350B"/>
</g>
<g filter="url(#filter2_d_612_176)">
<path d="M210.484 130.378C202.088 129.912 193.574 140.078 190.367 145.22L188.815 151.708C188.62 155.206 190.33 162.42 198.724 163.286C209.215 164.369 214.782 155.912 218.314 151.94C221.139 148.762 221.89 142.301 221.912 139.468C221.601 136.632 218.881 130.844 210.484 130.378Z" fill="#70350B"/>
<path d="M182.185 168.156L212.184 168.392L193.267 221.245C192.839 224.842 198.406 224.786 201.243 224.308L196.633 238.272L158.134 237.969L162.744 224.005C167.538 224.842 169.416 223.39 169.756 222.56C174.345 211.262 183.53 187.867 183.555 184.667C183.58 181.467 179.581 181.303 177.579 181.62L182.185 168.156Z" fill="#70350B"/>
<path d="M277.135 238.406L261.635 238.284L263.694 230.8L262.694 230.792C243.6 242.642 233.604 242.063 220.144 236.957C209.376 232.872 207.44 220.523 207.818 214.859C208.189 210.029 210.358 197.079 216.062 183.923C223.192 167.479 229.157 163.526 240.298 154.113C251.1 144.987 283.914 139.457 293.304 153.531C300.815 164.791 298.286 176.904 296.083 181.554L267.084 181.325L270.178 169.349C269.701 166.512 267.243 161.126 261.234 162.279C255.225 163.431 250.678 169.362 249.155 172.184L234.833 213.072C232.713 228.256 248.264 221.845 256.305 216.742L259.375 207.765C257.388 206.15 254.222 206.058 252.887 206.214L257.998 192.254L299.996 192.585L294.882 207.045C290.479 207.411 287.693 209.822 286.851 210.982L277.135 238.406Z" fill="#70350B"/>
</g>
<g filter="url(#filter3_i_612_176)">
<path d="M117.986 320.155L124.631 301.707C136.238 300.998 138.104 305.146 137.587 307.309L134.524 315.285C127.273 321.628 120.477 321.175 117.986 320.155Z" fill="#70350B"/>
<path d="M137.425 264.306L130.784 282.255C138.371 283.915 143.961 281.025 145.807 279.373L149.878 270.405C150.229 268.074 148.231 263.592 137.425 264.306Z" fill="#70350B"/>
<path d="M200.675 296.306L210.388 269.382C212.906 262.401 218.454 260.945 222.45 261.476C225.647 261.902 226.068 267.672 225.879 270.504C222.98 278.814 216.676 296.232 214.651 299.416C212.12 303.396 208.596 306.369 203.604 305.329C199.611 304.498 199.988 298.967 200.675 296.306Z" fill="#70350B"/>
<path d="M127.58 181.226L134.225 162.778C143.838 161.254 146.201 165.873 146.182 168.373C146.179 168.706 145.663 170.769 143.619 176.353C141.575 181.937 132.074 181.928 127.58 181.226Z" fill="#70350B"/>
<path d="M114.285 218.623L120.93 200.175C130.536 199.45 133.909 202.944 134.394 204.781C134.558 205.115 134.174 207.379 131.324 213.757C128.473 220.135 118.777 219.658 114.285 218.623Z" fill="#70350B"/>
</g>
<g filter="url(#filter4_d_612_176)">
<path d="M395.414 283.243L371.914 282.743C372.414 281.243 378.914 269.243 369.414 267.243C361.814 265.643 356.581 272.91 354.914 276.743C351.747 284.41 345.114 301.043 343.914 306.243C342.714 311.443 344.414 315.076 345.414 316.243C345.747 316.576 347.814 317.443 353.414 318.243C359.014 319.043 363.081 316.576 364.414 315.243C364.914 314.576 366.414 312.643 368.414 310.243C370.414 307.843 373.581 307.91 374.914 308.243L381.914 310.743C383.581 311.076 387.014 312.243 387.414 314.243C387.814 316.243 384.247 320.743 382.414 322.743C376.914 326.576 363.314 334.243 352.914 334.243C339.914 334.243 330.914 332.243 323.414 323.743C315.914 315.243 318.914 306.743 319.914 303.243C320.914 299.743 327.914 281.743 329.914 277.243C331.914 272.743 342.914 262.243 346.414 259.743C349.914 257.243 368.914 248.743 380.914 252.243C392.914 255.743 398.414 262.243 399.414 266.743C400.414 271.243 399.914 277.743 398.914 280.243C398.114 282.243 396.247 283.076 395.414 283.243Z" fill="#70350B"/>
<path d="M410.414 270.243L416.914 253.743L445.414 255.243L431.914 291.243L463.414 293.243L470.914 275.743C473.414 269.91 480.214 257.843 487.414 256.243C496.414 254.243 505.414 255.743 511.914 261.243C518.414 266.743 520.914 278.743 518.914 288.743C517.314 296.743 510.581 304.743 507.414 307.743C505.747 309.243 501.114 312.343 495.914 312.743C489.414 313.243 486.414 307.743 483.914 303.743C481.914 300.543 484.414 293.076 485.914 289.743C487.414 287.243 491.114 281.743 493.914 279.743C496.714 277.743 497.414 274.91 497.414 273.743C491.814 268.543 487.747 273.91 486.414 277.243L457.914 354.243L437.414 353.743L454.414 314.243L423.914 312.243C421.581 319.076 416.114 334.543 412.914 341.743C409.714 348.943 400.914 360.743 396.914 365.743C390.247 375.41 369.814 394.043 341.414 391.243C313.014 388.443 298.914 367.41 295.414 357.243L309.914 353.243C328.914 361.743 346.414 364.243 368.414 356.243C386.014 349.843 396.081 336.91 398.914 331.243L420.414 272.243L410.414 270.243Z" fill="#70350B"/>
</g>
<g filter="url(#filter5_d_612_176)">
<path d="M767.2 682.456L772.2 682.495L767.073 698.455L765.069 698.94L763.565 699.428L762.053 700.916L760.542 702.404L759.022 704.892L733.459 776.193L715.46 776.051L714.964 775.547L703.39 721.454L702.39 721.446L694.236 740.883L692.201 745.367L690.166 749.851L687.614 756.331L685.571 761.815L683.536 766.299L680.996 771.279L678.457 776.259L675.422 780.736L671.886 785.208L667.347 790.172L663.316 794.141L659.284 798.109L654.257 801.57L648.734 804.526L640.702 808.463L634.187 810.412L627.175 811.857L618.671 812.29L609.18 811.215L601.196 809.152L596.215 806.612L591.239 803.573L586.267 800.034L582.795 796.506L578.83 791.975L576.358 788.455L573.889 784.436L570.933 778.912L573.937 778.436L577.945 777.468L581.452 776.495L584.964 775.023L602.412 781.66L608.904 782.712L614.9 783.259L619.9 783.298L624.408 782.334L632.919 780.901L644.958 775.996L653.493 771.563L660.033 766.614L666.576 761.165L672.631 754.213L677.682 747.752L682.745 739.792L686.3 732.82L689.347 726.844L698.544 701.915L698.055 700.412L690.56 699.852L696.189 683.396L724.189 683.617L734.806 732.202L735.306 732.206L745.018 705.282L746.542 702.294L748.07 698.806L749.589 696.317L751.621 692.333L753.636 690.349L756.16 687.369L759.68 684.897L763.195 682.924L767.2 682.456Z" fill="#70350B"/>
</g>
<g filter="url(#filter6_d_612_176)">
<path d="M643.672 685.483C630.422 691.778 620.346 705.633 616.964 711.773L614.924 716.757L611.858 725.233C609.81 731.217 610.266 736.721 610.727 741.725C611.095 745.728 616.487 751.104 619.136 753.291L628.608 756.866C633.935 757.741 646.798 758.209 655.639 753.079C666.69 746.666 668.205 744.678 672.741 740.213C676.369 736.642 679.982 730.77 681.335 728.281L686.449 713.82C687.142 710.493 688.041 702.133 686.095 695.317C684.149 688.502 677.011 684.745 673.686 683.719C669.202 681.684 656.922 679.187 643.672 685.483Z" fill="#70350B"/>
<path d="M511.967 774.448L517.596 757.991C524.393 758.445 527.105 756.9 527.612 756.07L550.108 693.246L547.19 682.722C559.023 682.816 584.79 682.919 593.193 682.585C603.697 682.167 610.169 685.719 613.641 689.246C617.113 692.774 618.606 693.785 612.479 709.738C607.578 722.499 594.018 725.926 587.85 726.044L587.339 727.54C590.846 726.568 598.322 729.627 601.287 734.15C603.658 737.769 603.217 742.999 602.7 745.162C602.872 744.496 603.144 745.17 600.145 752.142C596.002 761.775 594.563 762.598 587.516 768.543C581.878 773.298 571.466 774.75 566.965 774.881L513.963 774.963L511.967 774.448Z" fill="#70350B"/>
<path d="M513.542 637.956C533.003 655.71 542.695 682.187 545.108 693.206L541.528 703.178C541.376 701.344 540.58 696.571 538.615 692.155C536.159 686.635 528.757 674.077 523.805 668.038C519.843 663.206 515.54 659.305 513.884 657.959C511.229 656.438 504.82 653.387 500.42 653.353C496.02 653.318 494.232 655.971 493.888 657.301C493.713 658.467 494.656 661.408 499.837 663.849C505.018 666.289 510.337 663.931 512.348 662.447C515.987 665.976 522.765 673.129 520.761 673.514C518.758 673.898 507.261 673.574 501.762 673.364C488.159 673.657 475.807 667.659 471.331 664.624C439.084 632.369 489.216 615.763 513.542 637.956Z" fill="#70350B"/>
<path d="M543.261 673.691C542.099 668.882 532.585 653.606 527.974 646.57L530.506 639.089L543.844 599.693C543.056 598.087 537.86 597.646 535.36 597.626L541.49 581.174L594.488 581.592C617.487 581.773 616.33 601.765 606.236 613.685C598.16 623.222 588.144 625.21 584.146 625.012L584.138 626.012C587.306 625.87 594.53 626.994 598.086 632.622C601.642 638.25 598.468 647.625 596.436 651.609C595.241 655.267 590.54 663.863 581.299 668.991C572.058 674.118 552.09 674.261 543.261 673.691Z" fill="#70350B"/>
</g>
<g filter="url(#filter7_d_612_176)">
<path d="M646.609 566.502C638.213 566.036 629.699 576.202 626.492 581.344L624.94 587.832C624.745 591.33 626.455 598.544 634.849 599.41C645.34 600.493 650.907 592.037 654.439 588.064C657.264 584.886 658.015 578.426 658.037 575.592C657.726 572.756 655.006 566.968 646.609 566.502Z" fill="#70350B"/>
<path d="M618.31 604.28L648.309 604.517L629.392 657.369C628.964 660.966 634.531 660.91 637.368 660.432L632.758 674.396L594.259 674.093L598.869 660.129C603.663 660.967 605.541 659.515 605.881 658.684C610.47 647.386 619.655 623.991 619.68 620.791C619.705 617.592 615.706 617.427 613.704 617.744L618.31 604.28Z" fill="#70350B"/>
<path d="M713.26 674.53L697.76 674.408L699.819 666.924L698.819 666.916C679.725 678.766 669.729 678.188 656.269 673.081C645.501 668.996 643.565 656.647 643.943 650.984C644.314 646.153 646.483 633.203 652.187 620.048C659.317 603.603 665.282 599.65 676.423 590.238C687.225 581.111 720.039 575.581 729.429 589.655C736.94 600.915 734.411 613.029 732.208 617.678L703.209 617.45L706.303 605.474C705.826 602.636 703.368 597.25 697.359 598.403C691.35 599.556 686.803 605.487 685.28 608.308L670.958 649.196C668.838 664.38 684.389 657.969 692.43 652.866L695.5 643.89C693.513 642.274 690.347 642.182 689.012 642.338L694.123 628.378L736.121 628.709L731.007 643.169C726.604 643.535 723.818 645.946 722.976 647.106L713.26 674.53Z" fill="#70350B"/>
</g>
<g filter="url(#filter8_i_612_176)">
<path d="M554.111 756.279L560.756 737.831C572.363 737.122 574.229 741.271 573.712 743.433L570.649 751.409C563.398 757.752 556.602 757.299 554.111 756.279Z" fill="#70350B"/>
<path d="M573.55 700.431L566.909 718.379C574.496 720.039 580.086 717.149 581.932 715.497L586.003 706.529C586.354 704.198 584.356 699.716 573.55 700.431Z" fill="#70350B"/>
<path d="M636.8 732.43L646.513 705.506C649.031 698.525 654.579 697.069 658.575 697.6C661.772 698.026 662.193 703.796 662.004 706.628C659.105 714.939 652.801 732.356 650.776 735.54C648.245 739.52 644.721 742.493 639.729 741.453C635.736 740.622 636.113 735.091 636.8 732.43Z" fill="#70350B"/>
<path d="M563.705 617.351L570.35 598.902C579.963 597.378 582.326 601.997 582.307 604.497C582.304 604.83 581.788 606.893 579.744 612.477C577.7 618.061 568.199 618.053 563.705 617.351Z" fill="#70350B"/>
<path d="M550.41 654.747L557.055 636.299C566.661 635.574 570.034 639.068 570.519 640.905C570.683 641.24 570.299 643.503 567.449 649.881C564.598 656.259 554.902 655.782 550.41 654.747Z" fill="#70350B"/>
</g>
<g filter="url(#filter9_d_612_176)">
<path d="M831.539 719.367L808.039 718.867C808.539 717.367 815.039 705.367 805.539 703.367C797.939 701.767 792.706 709.034 791.039 712.867C787.872 720.534 781.239 737.167 780.039 742.367C778.839 747.567 780.539 751.2 781.539 752.367C781.872 752.7 783.939 753.567 789.539 754.367C795.139 755.167 799.206 752.7 800.539 751.367C801.039 750.7 802.539 748.767 804.539 746.367C806.539 743.967 809.706 744.034 811.039 744.367L818.039 746.867C819.706 747.2 823.139 748.367 823.539 750.367C823.939 752.367 820.372 756.867 818.539 758.867C813.039 762.7 799.439 770.367 789.039 770.367C776.039 770.367 767.039 768.367 759.539 759.867C752.039 751.367 755.039 742.867 756.039 739.367C757.039 735.867 764.039 717.867 766.039 713.367C768.039 708.867 779.039 698.367 782.539 695.867C786.039 693.367 805.039 684.867 817.039 688.367C829.039 691.867 834.539 698.367 835.539 702.867C836.539 707.367 836.039 713.867 835.039 716.367C834.239 718.367 832.372 719.2 831.539 719.367Z" fill="#70350B"/>
<path d="M846.539 706.367L853.039 689.867L881.539 691.367L868.039 727.367L899.539 729.367L907.039 711.867C909.539 706.034 916.339 693.967 923.539 692.367C932.539 690.367 941.539 691.867 948.039 697.367C954.539 702.867 957.039 714.867 955.039 724.867C953.439 732.867 946.706 740.867 943.539 743.867C941.872 745.367 937.239 748.467 932.039 748.867C925.539 749.367 922.539 743.867 920.039 739.867C918.039 736.667 920.539 729.2 922.039 725.867C923.539 723.367 927.239 717.867 930.039 715.867C932.839 713.867 933.539 711.034 933.539 709.867C927.939 704.667 923.872 710.034 922.539 713.367L894.039 790.367L873.539 789.867L890.539 750.367L860.039 748.367C857.706 755.2 852.239 770.667 849.039 777.867C845.839 785.067 837.039 796.867 833.039 801.867C826.372 811.534 805.939 830.167 777.539 827.367C749.139 824.567 735.039 803.534 731.539 793.367L746.039 789.367C765.039 797.867 782.539 800.367 804.539 792.367C822.139 785.967 832.206 773.034 835.039 767.367L856.539 708.367L846.539 706.367Z" fill="#70350B"/>
</g>
<defs>
<filter id="filter0_d_612_176" x="130.808" y="246.332" width="209.268" height="137.834" filterUnits="userSpaceOnUse" color-interpolation-filters="sRGB">
<feFlood flood-opacity="0" result="BackgroundImageFix"/>
<feColorMatrix in="SourceAlpha" type="matrix" values="0 0 0 0 0 0 0 0 0 0 0 0 0 0 0 0 0 0 127 0" result="hardAlpha"/>
<feOffset dy="4"/>
<feGaussianBlur stdDeviation="2"/>
<feComposite in2="hardAlpha" operator="out"/>
<feColorMatrix type="matrix" values="0 0 0 0 0 0 0 0 0 0 0 0 0 0 0 0 0 0 0.25 0"/>
<feBlend mode="normal" in2="BackgroundImageFix" result="effect1_dropShadow_612_176"/>
<feBlend mode="normal" in="SourceGraphic" in2="effect1_dropShadow_612_176" result="shape"/>
</filter>
<filter id="filter1_d_612_176" x="20.7129" y="145.05" width="234.435" height="201.789" filterUnits="userSpaceOnUse" color-interpolation-filters="sRGB">
<feFlood flood-opacity="0" result="BackgroundImageFix"/>
<feColorMatrix in="SourceAlpha" type="matrix" values="0 0 0 0 0 0 0 0 0 0 0 0 0 0 0 0 0 0 127 0" result="hardAlpha"/>
<feOffset dy="4"/>
<feGaussianBlur stdDeviation="2"/>
<feComposite in2="hardAlpha" operator="out"/>
<feColorMatrix type="matrix" values="0 0 0 0 0 0 0 0 0 0 0 0 0 0 0 0 0 0 0.25 0"/>
<feBlend mode="normal" in2="BackgroundImageFix" result="effect1_dropShadow_612_176"/>
<feBlend mode="normal" in="SourceGraphic" in2="effect1_dropShadow_612_176" result="shape"/>
</filter>
<filter id="filter2_d_612_176" x="154.135" y="130.362" width="149.861" height="118.048" filterUnits="userSpaceOnUse" color-interpolation-filters="sRGB">
<feFlood flood-opacity="0" result="BackgroundImageFix"/>
<feColorMatrix in="SourceAlpha" type="matrix" values="0 0 0 0 0 0 0 0 0 0 0 0 0 0 0 0 0 0 127 0" result="hardAlpha"/>
<feOffset dy="4"/>
<feGaussianBlur stdDeviation="2"/>
<feComposite in2="hardAlpha" operator="out"/>
<feColorMatrix type="matrix" values="0 0 0 0 0 0 0 0 0 0 0 0 0 0 0 0 0 0 0.25 0"/>
<feBlend mode="normal" in2="BackgroundImageFix" result="effect1_dropShadow_612_176"/>
<feBlend mode="normal" in="SourceGraphic" in2="effect1_dropShadow_612_176" result="shape"/>
</filter>
<filter id="filter3_i_612_176" x="114.285" y="162.476" width="111.632" height="162.28" filterUnits="userSpaceOnUse" color-interpolation-filters="sRGB">
<feFlood flood-opacity="0" result="BackgroundImageFix"/>
<feBlend mode="normal" in="SourceGraphic" in2="BackgroundImageFix" result="shape"/>
<feColorMatrix in="SourceAlpha" type="matrix" values="0 0 0 0 0 0 0 0 0 0 0 0 0 0 0 0 0 0 127 0" result="hardAlpha"/>
<feOffset dy="4"/>
<feGaussianBlur stdDeviation="2"/>
<feComposite in2="hardAlpha" operator="arithmetic" k2="-1" k3="1"/>
<feColorMatrix type="matrix" values="0 0 0 0 0 0 0 0 0 0 0 0 0 0 0 0 0 0 0.25 0"/>
<feBlend mode="normal" in2="shape" result="effect1_innerShadow_612_176"/>
</filter>
<filter id="filter4_d_612_176" x="291.414" y="251.41" width="232.172" height="148.117" filterUnits="userSpaceOnUse" color-interpolation-filters="sRGB">
<feFlood flood-opacity="0" result="BackgroundImageFix"/>
<feColorMatrix in="SourceAlpha" type="matrix" values="0 0 0 0 0 0 0 0 0 0 0 0 0 0 0 0 0 0 127 0" result="hardAlpha"/>
<feOffset dy="4"/>
<feGaussianBlur stdDeviation="2"/>
<feComposite in2="hardAlpha" operator="out"/>
<feColorMatrix type="matrix" values="0 0 0 0 0 0 0 0 0 0 0 0 0 0 0 0 0 0 0.25 0"/>
<feBlend mode="normal" in2="BackgroundImageFix" result="effect1_dropShadow_612_176"/>
<feBlend mode="normal" in="SourceGraphic" in2="effect1_dropShadow_612_176" result="shape"/>
</filter>
<filter id="filter5_d_612_176" x="566.933" y="682.456" width="209.268" height="137.834" filterUnits="userSpaceOnUse" color-interpolation-filters="sRGB">
<feFlood flood-opacity="0" result="BackgroundImageFix"/>
<feColorMatrix in="SourceAlpha" type="matrix" values="0 0 0 0 0 0 0 0 0 0 0 0 0 0 0 0 0 0 127 0" result="hardAlpha"/>
<feOffset dy="4"/>
<feGaussianBlur stdDeviation="2"/>
<feComposite in2="hardAlpha" operator="out"/>
<feColorMatrix type="matrix" values="0 0 0 0 0 0 0 0 0 0 0 0 0 0 0 0 0 0 0.25 0"/>
<feBlend mode="normal" in2="BackgroundImageFix" result="effect1_dropShadow_612_176"/>
<feBlend mode="normal" in="SourceGraphic" in2="effect1_dropShadow_612_176" result="shape"/>
</filter>
<filter id="filter6_d_612_176" x="456.838" y="581.174" width="234.435" height="201.789" filterUnits="userSpaceOnUse" color-interpolation-filters="sRGB">
<feFlood flood-opacity="0" result="BackgroundImageFix"/>
<feColorMatrix in="SourceAlpha" type="matrix" values="0 0 0 0 0 0 0 0 0 0 0 0 0 0 0 0 0 0 127 0" result="hardAlpha"/>
<feOffset dy="4"/>
<feGaussianBlur stdDeviation="2"/>
<feComposite in2="hardAlpha" operator="out"/>
<feColorMatrix type="matrix" values="0 0 0 0 0 0 0 0 0 0 0 0 0 0 0 0 0 0 0.25 0"/>
<feBlend mode="normal" in2="BackgroundImageFix" result="effect1_dropShadow_612_176"/>
<feBlend mode="normal" in="SourceGraphic" in2="effect1_dropShadow_612_176" result="shape"/>
</filter>
<filter id="filter7_d_612_176" x="590.26" y="566.487" width="149.861" height="118.048" filterUnits="userSpaceOnUse" color-interpolation-filters="sRGB">
<feFlood flood-opacity="0" result="BackgroundImageFix"/>
<feColorMatrix in="SourceAlpha" type="matrix" values="0 0 0 0 0 0 0 0 0 0 0 0 0 0 0 0 0 0 127 0" result="hardAlpha"/>
<feOffset dy="4"/>
<feGaussianBlur stdDeviation="2"/>
<feComposite in2="hardAlpha" operator="out"/>
<feColorMatrix type="matrix" values="0 0 0 0 0 0 0 0 0 0 0 0 0 0 0 0 0 0 0.25 0"/>
<feBlend mode="normal" in2="BackgroundImageFix" result="effect1_dropShadow_612_176"/>
<feBlend mode="normal" in="SourceGraphic" in2="effect1_dropShadow_612_176" result="shape"/>
</filter>
<filter id="filter8_i_612_176" x="550.41" y="598.6" width="111.632" height="162.28" filterUnits="userSpaceOnUse" color-interpolation-filters="sRGB">
<feFlood flood-opacity="0" result="BackgroundImageFix"/>
<feBlend mode="normal" in="SourceGraphic" in2="BackgroundImageFix" result="shape"/>
<feColorMatrix in="SourceAlpha" type="matrix" values="0 0 0 0 0 0 0 0 0 0 0 0 0 0 0 0 0 0 127 0" result="hardAlpha"/>
<feOffset dy="4"/>
<feGaussianBlur stdDeviation="2"/>
<feComposite in2="hardAlpha" operator="arithmetic" k2="-1" k3="1"/>
<feColorMatrix type="matrix" values="0 0 0 0 0 0 0 0 0 0 0 0 0 0 0 0 0 0 0.25 0"/>
<feBlend mode="normal" in2="shape" result="effect1_innerShadow_612_176"/>
</filter>
<filter id="filter9_d_612_176" x="727.539" y="687.534" width="232.172" height="148.117" filterUnits="userSpaceOnUse" color-interpolation-filters="sRGB">
<feFlood flood-opacity="0" result="BackgroundImageFix"/>
<feColorMatrix in="SourceAlpha" type="matrix" values="0 0 0 0 0 0 0 0 0 0 0 0 0 0 0 0 0 0 127 0" result="hardAlpha"/>
<feOffset dy="4"/>
<feGaussianBlur stdDeviation="2"/>
<feComposite in2="hardAlpha" operator="out"/>
<feColorMatrix type="matrix" values="0 0 0 0 0 0 0 0 0 0 0 0 0 0 0 0 0 0 0.25 0"/>
<feBlend mode="normal" in2="BackgroundImageFix" result="effect1_dropShadow_612_176"/>
<feBlend mode="normal" in="SourceGraphic" in2="effect1_dropShadow_612_176" result="shape"/>
</filter>
</defs>
</svg>
